# xmcd CD database file
#
# Track frame offsets:
#	183
#	29845
#	51000
#	62473
#	77043
#	112583
#	134610
#	161940
#	191075
#	215500
#
# Disc length: 3261 seconds
#
# Revision: 0
# Processed by: cddbd v1.5.2PL0 Copyright (c) Steve Scherf et al.
# Submitted via: CDex 1.51
#
DISCID=8d0cbb0a
DTITLE=GERARD PANSANEL Enrico Rava Antonello Salis Michel Benita Aldo Romano - Voices
DYEAR=1992
DGENRE=Jazz
TTITLE0=red days
TTITLE1=voices
TTITLE2=misteryhotel
TTITLE3=starbright
TTITLE4=chaleurs
TTITLE5=aficionadas
TTITLE6=three travels
TTITLE7=bella
TTITLE8=springs
TTITLE9=la voie lactée
EXTD=YEAR: 1992
EXTT0=
EXTT1=
EXTT2=
EXTT3=
EXTT4=
EXTT5=
EXTT6=
EXTT7=
EXTT8=
EXTT9=
PLAYORDER=
